<svg id="logo" xmlns="http://www.w3.org/2000/svg" viewBox="0 0 413.8 84.35"><title>reading-logo</title><path d="M18.76,33c3.57-6.44,8.4-8.54,12.46-8.54l-1.68,7.28a7.41,7.41,0,0,0-2.17-.35c-3,0-6.86,2.87-11.06,13.93l-2,14.14H7L10.43,35a75.8,75.8,0,0,0,.63-9.8l7.14-.7A42.45,42.45,0,0,1,17.78,35l-.28,1.82h.21Z" fill="#b00000"/><path d="M64.19,34.72c-1,6.93-9,9.31-22.89,9.45-.49,6.79,2.17,10.36,7.07,10.36,3.78,0,7.28-1.4,11.48-4.62v6.37A21.76,21.76,0,0,1,47.18,60.2c-9.8,0-14.56-6.65-13-17.85s9-17.85,18.06-17.85C59.64,24.5,65.1,27.86,64.19,34.72ZM51.45,30c-4.83,0-8.33,3.36-9.8,10.22,11.41,0,15-1.54,15.47-5S55.58,30,51.45,30Z" fill="#b00000"/><path d="M97.37,49.7a75.8,75.8,0,0,0-.63,9.8l-7.14.7A43.13,43.13,0,0,1,90,49.7l.14-.91H90l-1,3.85c-4.27,5.53-8.68,7.56-12.81,7.56-6.3,0-8.4-5.46-7.07-15.4,1.61-11.2,8-20.3,18.48-20.3a26.44,26.44,0,0,1,12.81,3.78Zm-6.23-7.77,1.47-10.71a15.52,15.52,0,0,0-5.67-1c-5.81,0-9,6.65-10.15,14.63-.91,6.58-.42,9.73,2.87,9.73S87.5,50.19,91.14,41.93Z" fill="#b00000"/><path d="M135.45,49.7a75.8,75.8,0,0,0-.63,9.8l-7.14.7a39.85,39.85,0,0,1,.42-10.5l.14-.91h-.14L127,52.64c-4.2,5.53-8.61,7.56-12.74,7.56-6.37,0-8.47-5.46-7.07-15.4,1.61-11.2,8-20.3,18.48-20.3a14.44,14.44,0,0,1,5.88,1.12l2.52-17.93,7.42-.7Zm-6.23-7.77,1.47-10.43A10.31,10.31,0,0,0,125,30.17c-5.81,0-9,6.65-10.15,14.63-.91,6.58-.42,9.73,2.87,9.73S125.51,50.19,129.22,41.93Z" fill="#b00000"/><path d="M145.88,59.5l4.76-34.3,7.49-.7-4.9,35Zm4.83-45.86c.28-1.75,4.2-5.18,5.95-5.18s4.69,3.43,4.41,5.18-4.13,5.19-5.88,5.19S150.5,15.4,150.71,13.64Z" fill="#b00000"/><path d="M195.93,36.68,192.78,59.5h-7.35l3.15-22.82c.77-5-.14-6.51-2.24-6.51-3.29,0-7.84,4.34-11.55,12.6L172.48,59.5h-7.35L168.56,35a75.8,75.8,0,0,0,.63-9.8l7.14-.7a39.93,39.93,0,0,1-.42,10.5l-.14.84h.14L177,32c4.2-5.46,8.75-7.49,12.81-7.49C196.63,24.5,197.05,28.77,195.93,36.68Z" fill="#b00000"/><path d="M232.54,30.31a10,10,0,0,1,.91,5.81c-1,7-7.7,11.62-15.4,11.62a14.06,14.06,0,0,1-1.75-.07,6.07,6.07,0,0,0-2,3.36c-.28,2.17,2.94,2.73,6.51,3.15,5.6.77,12.88,2,11.83,9.31S223.16,76,213,76c-8.47,0-12.25-3.92-11.55-9.17.63-4.13,3.78-7.49,7.7-10A3.85,3.85,0,0,1,208,53.34c.28-2,1.68-4.34,4.2-6.65-4.48-1.68-7.14-5.53-6.44-10.57,1-7,7.77-11.62,15.47-11.62a14.85,14.85,0,0,1,7.21,1.75l5.81-6.16,4.41,4.13ZM212.17,58.45c-2.73,2.24-4.27,4.41-4.62,7.07-.63,4.2,2.66,5.32,6.51,5.32,5.46,0,11.2-2.17,11.76-6.44.49-3.36-2.17-3.85-6.86-4.55A38.79,38.79,0,0,1,212.17,58.45Zm14.35-22.33c.49-3.64-2.17-6.3-6-6.3a7.49,7.49,0,0,0-7.7,6.3c-.56,3.64,2,6.3,5.95,6.3A7.57,7.57,0,0,0,226.52,36.12Z" fill="#b00000"/><path d="M239.82,53.27c0-2.24,4.62-6.86,6.86-6.86s6.93,4.62,6.93,6.86-4.69,6.93-6.93,6.93S239.82,55.51,239.82,53.27Z" fill="#0e0e0e"/><path d="M292.46,41.65c0,11.9-6.16,18.55-17.36,18.55s-17.29-6.65-17.29-17.15c0-11.9,6.09-18.55,17.29-18.55S292.46,31.15,292.46,41.65Zm-11.13,1.19c0-8.82-3.15-12.67-7.07-12.67a6.4,6.4,0,0,0-3.36.91c-1.19,1.82-2,5.6-2,10.71,0,8.89,3.15,12.74,7.14,12.74a6.29,6.29,0,0,0,3.29-.91C280.49,51.8,281.33,48,281.33,42.84Z" fill="#0e0e0e"/><path d="M322.49,59.5H312.41L300.93,30.38a28.13,28.13,0,0,1-5.18-1.75l.35-3.43h19.53l.35,3.43-3.92.49,6.51,20.3.28,4.55H319l.35-4.55,6.23-19.32a27,27,0,0,1-4.2-1.47l.35-3.43h16.1l.35,3.43-3.64.56Z" fill="#0e0e0e"/><path d="M361.9,59.5h-21V56.07a28.87,28.87,0,0,1,5.25-1.75V12.52l-5.25-1.4.35-3.43C346,7.27,351,7,356,7a27.86,27.86,0,0,1,1.05,7.7V51.8a30.84,30.84,0,0,1-.21,3.64l5.46.63Z" fill="#0e0e0e"/><path d="M402.85,41.65c0,11.9-6.16,18.55-17.36,18.55a36.73,36.73,0,0,1-10.92-1.68l-1.61,1h-3.15v-47l-5.25-1.4.35-3.43c4.83-.42,9.73-.7,14.7-.7a27.86,27.86,0,0,1,1.05,7.7V27a16.17,16.17,0,0,1,8.19-2.52C397,24.5,402.85,31.15,402.85,41.65Zm-11.13,1.19c0-8.82-2.94-12.67-6.72-12.67a7.37,7.37,0,0,0-4.34,1.47V53.2a10.39,10.39,0,0,0,5.18,1.33,7.22,7.22,0,0,0,3.85-.91C390.88,51.8,391.72,48,391.72,42.84Z" fill="#0e0e0e"/></svg>